# File created by Blade
# Date/Time:  Tue Sep 30 19:15:05 2014
# Frame Rate: 120.000 fps
#------------------------------------------------------
:FULLY-SPECIFIED
:DEGREES
3027
root -0.139900 33.934731 -3.089894 40.596950 -28.615659 -38.371357
Spine -11.052827 25.594191 16.825729
Head -22.852678 -49.869452 31.550501
LeftShoulder 18.728327 8.593606 24.549944
LeftArm -27.573980 -20.297203 -74.941111
LeftForeArm -141.034073 6.855611 -8.395460
LeftHand -0.000061 36.774053 5.151080
LeftHandThumb1 30.357831 13.997178 22.438692
RightShoulder -20.082451 -14.697790 -15.712119
RightArm 50.477017 4.460830 94.923747
RightForeArm 70.638929 -27.818626 9.312796
RightHand 0.000004 -6.101411 19.506328
RightHandThumb1 30.482666 -12.916435 -20.793814
LeftUpLeg -29.272283 19.561818 17.244094
LeftLeg 18.943300 -0.000000 0.000000
LeftFoot -19.639062 31.453829 -4.886005
LeftToeBase 4.827300 -0.000000 -0.000000
RightUpLeg -43.791072 -37.369123 -33.667694
RightLeg 94.047798 -0.000000 -0.000000
RightFoot 28.416446 -25.027247 -5.318117
RightToeBase 16.042700 -0.000000 -0.000000
3028
root -0.145700 33.944131 -3.101894 40.664379 -28.699958 -38.550751
Spine -10.952786 25.775571 16.916658
Head -22.894711 -49.982782 31.607484
LeftShoulder 18.664964 8.525739 24.457492
LeftArm -27.755353 -20.149712 -74.794140
LeftForeArm -141.107455 6.769551 -8.313482
LeftHand 0.000056 36.812026 5.206679
LeftHandThumb1 30.357831 13.997178 22.438692
RightShoulder -20.215677 -14.634447 -15.702457
RightArm 50.969790 4.825683 95.285575
RightForeArm 70.685192 -27.793354 9.281550
RightHand 0.000026 -6.010910 19.493218
RightHandThumb1 30.482666 -12.916435 -20.793814
LeftUpLeg -29.172322 19.630731 17.391622
LeftLeg 18.910200 -0.000000 0.000000
LeftFoot -19.635549 31.548003 -4.916831
LeftToeBase 4.844800 0.000000 0.000000
RightUpLeg -43.873455 -37.535686 -33.624628
RightLeg 94.208801 -0.000000 0.000000
RightFoot 28.319878 -25.074107 -5.497255
RightToeBase 16.117100 0.000000 0.000000
3029
root -0.154900 33.956631 -3.115394 40.759940 -28.779619 -38.777482
Spine -10.865062 25.971956 17.036348
Head -22.878875 -50.103299 31.621081
LeftShoulder 18.705927 8.481336 24.403106
LeftArm -27.882095 -20.120896 -74.723966
LeftForeArm -141.183733 6.806373 -8.380339
LeftHand 0.000064 36.870622 5.172981
LeftHandThumb1 30.357831 13.997178 22.438692
RightShoulder -20.396319 -14.462924 -15.688060
RightArm 51.416849 5.066468 95.555006
RightForeArm 70.896140 -27.609045 9.118992
RightHand -0.000017 -6.013747 19.232152
RightHandThumb1 30.482666 -12.916435 -20.793814
LeftUpLeg -29.064533 19.724238 17.591043
LeftLeg 18.908800 -0.000000 -0.000000
LeftFoot -19.668946 31.643510 -4.991542
LeftToeBase 4.951500 -0.000000 -0.000000
RightUpLeg -43.979192 -37.608605 -33.534722
RightLeg 94.389099 -0.000000 -0.000000
RightFoot 28.264267 -25.102937 -5.632659
RightToeBase 16.004700 -0.000000 0.000000
3030
root -0.160700 33.968731 -3.134194 40.928953 -28.933524 -39.028548
Spine -10.837082 26.250649 17.060591
Head -22.885116 -50.183001 31.720626
LeftShoulder 18.723516 8.410716 24.398743
LeftArm -28.025369 -20.060849 -74.677744
LeftForeArm -141.272624 6.845979 -8.454614
LeftHand -0.000060 36.905310 5.114263
LeftHandThumb1 30.357831 13.997178 22.438692
RightShoulder -20.523415 -14.386174 -15.637926
RightArm 51.897647 5.375939 95.834625
RightForeArm 71.071683 -27.356971 8.955426
RightHand -0.000021 -5.881777 19.065438
RightHandThumb1 30.482666 -12.916435 -20.793814
LeftUpLeg -29.007291 19.933692 17.740187
LeftLeg 18.876200 -0.000000 -0.000000
LeftFoot -19.670010 31.577761 -5.140925
LeftToeBase 4.841400 0.000000 0.000000
RightUpLeg -44.231270 -37.625451 -33.390176
RightLeg 94.592102 -0.000000 -0.000000
RightFoot 28.253472 -25.036481 -5.876973
RightToeBase 15.907400 -0.000000 0.000000
3031
root -0.167900 33.979332 -3.146294 41.039528 -29.030215 -39.222883
Spine -10.802090 26.412498 17.104795
Head -22.868004 -50.236002 31.776685
LeftShoulder 18.751784 8.380909 24.373053
LeftArm -28.164031 -19.998156 -74.625997
LeftForeArm -141.371619 6.843419 -8.481062
LeftHand -0.000112 36.898949 5.176351
LeftHandThumb1 30.357831 13.997178 22.438692
RightShoulder -20.704567 -14.271495 -15.584479
RightArm 52.382487 5.604277 96.075522
RightForeArm 71.295441 -27.015864 8.743080
RightHand -0.000011 -5.878548 19.060860
RightHandThumb1 30.482666 -12.916435 -20.793814
LeftUpLeg -28.909285 19.926498 17.936217
LeftLeg 18.868601 0.000000 0.000000
LeftFoot -19.707115 31.804551 -5.170784
LeftToeBase 5.035600 -0.000000 -0.000000
RightUpLeg -44.369670 -37.711906 -33.329485
RightLeg 94.768898 -0.000000 -0.000000
RightFoot 28.226981 -25.036411 -5.933863
RightToeBase 15.984400 -0.000000 -0.000000
3032
root -0.173300 33.989533 -3.154894 41.139532 -29.125832 -39.396356
Spine -10.781203 26.552523 17.127115
Head -22.862724 -50.273881 31.866817
LeftShoulder 18.823082 8.349333 24.372652
LeftArm -28.255786 -19.955636 -74.669378
LeftForeArm -141.477264 6.876100 -8.552593
LeftHand 0.000006 36.808619 5.160873
LeftHandThumb1 30.357831 13.997178 22.438692
RightShoulder -20.829739 -14.161042 -15.467319
RightArm 52.899246 5.907222 96.261145
RightForeArm 71.535623 -26.769339 8.552638
RightHand -0.000005 -5.812614 18.867736
RightHandThumb1 30.482666 -12.916435 -20.793814
LeftUpLeg -28.814690 19.925331 18.091981
LeftLeg 18.826000 -0.000000 0.000000
LeftFoot -19.942908 31.986162 -5.504355
LeftToeBase 5.382600 0.000000 0.000000
RightUpLeg -44.479265 -37.778699 -33.297471
RightLeg 94.927803 0.000000 0.000000
RightFoot 28.150320 -24.972012 -5.940369
RightToeBase 16.167200 0.000000 0.000000
3033
root -0.178900 34.001633 -3.167394 41.307414 -29.245234 -39.621412
Spine -10.802256 26.755108 17.143281
Head -22.850291 -50.338233 31.941066
LeftShoulder 18.832896 8.302295 24.354756
LeftArm -28.362844 -19.882412 -74.652096
LeftForeArm -141.581424 6.813199 -8.507094
LeftHand 0.000036 36.742087 5.186036
LeftHandThumb1 30.357831 13.997178 22.438692
RightShoulder -20.933661 -14.093490 -15.446163
RightArm 53.282708 6.115552 96.569239
RightForeArm 71.651712 -26.553971 8.433387
RightHand -0.000008 -5.632903 18.755600
RightHandThumb1 30.482666 -12.916435 -20.793814
LeftUpLeg -28.745131 19.976593 18.270018
LeftLeg 18.789200 -0.000000 0.000000
LeftFoot -19.782701 32.176185 -5.400056
LeftToeBase 5.126900 -0.000000 -0.000000
RightUpLeg -44.696487 -37.792289 -33.172522
RightLeg 95.099800 -0.000000 0.000000
RightFoot 28.106791 -24.981937 -5.971390
RightToeBase 16.121901 -0.000000 -0.000000
3034
root -0.184900 34.013932 -3.180694 41.471766 -29.371940 -39.828042
Spine -10.839826 26.937264 17.108944
Head -22.844063 -50.381503 32.069415
LeftShoulder 18.814356 8.242629 24.371267
LeftArm -28.450834 -19.790185 -74.704317
LeftForeArm -141.696239 6.785803 -8.507996
LeftHand 0.000049 36.685531 5.166722
LeftHandThumb1 30.357831 13.997178 22.438692
RightShoulder -21.112638 -14.008759 -15.353323
RightArm 53.727624 6.285652 96.769051
RightForeArm 71.845056 -26.259424 8.254887
RightHand 0.000046 -5.520323 18.650145
RightHandThumb1 30.482666 -12.916435 -20.793814
LeftUpLeg -28.685915 20.061069 18.427514
LeftLeg 18.773100 -0.000000 0.000000
LeftFoot -19.868779 32.293736 -5.671204
LeftToeBase 4.647500 -0.000000 -0.000000
RightUpLeg -44.915744 -37.799289 -33.069432
RightLeg 95.288200 -0.000000 -0.000000
RightFoot 28.070994 -24.902383 -5.966820
RightToeBase 15.927100 -0.000000 0.000000
3035
root -0.191500 34.022831 -3.188894 41.563741 -29.486539 -39.952237
Spine -10.880614 27.052477 17.004233
Head -22.828544 -50.433808 32.235181
LeftShoulder 18.802388 8.179329 24.439152
LeftArm -28.453447 -19.733328 -74.851328
LeftForeArm -141.799132 6.797508 -8.553461
LeftHand 0.000015 36.554147 5.180792
LeftHandThumb1 30.357831 13.997178 22.438692
RightShoulder -21.255477 -13.900874 -15.206963
RightArm 54.097419 6.441013 96.911005
RightForeArm 72.073451 -26.093617 8.098213
RightHand -0.000054 -5.407137 18.578598
RightHandThumb1 30.482666 -12.916435 -20.793814
LeftUpLeg -28.601153 20.097485 18.531220
LeftLeg 18.733299 -0.000000 0.000000
LeftFoot -19.962242 32.346621 -5.869131
LeftToeBase 4.719900 -0.000000 -0.000000
RightUpLeg -45.035335 -37.817235 -33.079798
RightLeg 95.481201 -0.000000 -0.000000
RightFoot 27.945089 -24.820749 -5.905846
RightToeBase 16.008499 -0.000000 -0.000000
3036
root -0.196900 34.034031 -3.202794 41.729012 -29.597009 -40.125842
Spine -10.979365 27.223117 16.911835
Head -22.791902 -50.489733 32.384398
LeftShoulder 18.734568 8.069072 24.479391
LeftArm -28.507078 -19.668588 -74.933216
LeftForeArm -141.902893 6.769949 -8.550803
LeftHand 0.000019 36.484977 5.004688
LeftHandThumb1 30.357831 13.997178 22.438692
RightShoulder -21.350066 -13.839742 -15.111138
RightArm 54.512477 6.648584 97.126785
RightForeArm 72.185827 -25.986070 8.014279
RightHand 0.000003 -5.430985 18.385305
RightHandThumb1 30.482666 -12.916435 -20.793814
LeftUpLeg -28.571548 20.164465 18.661235
LeftLeg 18.707701 -0.000000 0.000000
LeftFoot -20.018783 32.430551 -5.997873
LeftToeBase 4.885100 0.000000 0.000000
RightUpLeg -45.275211 -37.820227 -32.977930
RightLeg 95.652298 0.000000 0.000000
RightFoot 28.122134 -24.715859 -6.053163
RightToeBase 15.821500 0.000000 0.000000
3037
root -0.202200 34.043232 -3.213494 41.799217 -29.699418 -40.266151
Spine -10.962927 27.322853 16.861088
Head -22.767475 -50.487111 32.506190
LeftShoulder 18.665774 7.961421 24.539892
LeftArm -28.534142 -19.641196 -75.128376
LeftForeArm -142.011566 6.807413 -8.630355
LeftHand -0.000045 36.423960 4.821307
LeftHandThumb1 30.357831 13.997178 22.438692
RightShoulder -21.420762 -13.735722 -15.012295
RightArm 54.906806 6.875820 97.238280
RightForeArm 72.418417 -25.789331 7.849114
RightHand 0.000013 -5.429254 18.320288
RightHandThumb1 30.482666 -12.916435 -20.793814
LeftUpLeg -28.456514 20.189005 18.788561
LeftLeg 18.647699 -0.000000 -0.000000
LeftFoot -20.104771 32.481542 -6.212025
LeftToeBase 4.905500 -0.000000 0.000000
RightUpLeg -45.393861 -37.790151 -32.975237
RightLeg 95.812798 -0.000000 -0.000000
RightFoot 28.137158 -24.665526 -5.999478
RightToeBase 15.967900 -0.000000 -0.000000
3038
root -0.208500 34.051533 -3.225294 41.899667 -29.809958 -40.390928
Spine -11.025998 27.407914 16.752475
Head -22.651405 -50.501052 32.581529
LeftShoulder 18.518530 7.826237 24.556284
LeftArm -28.556766 -19.520990 -75.119487
LeftForeArm -142.140818 6.857567 -8.732592
LeftHand -0.000026 36.417744 4.723723
LeftHandThumb1 30.357831 13.997178 22.438692
RightShoulder -21.487362 -13.620036 -14.917868
RightArm 55.292334 7.088054 97.415426
RightForeArm 72.509718 -25.811808 7.812496
RightHand -0.000010 -5.442043 18.096538
RightHandThumb1 30.482666 -12.916435 -20.793814
LeftUpLeg -28.389880 20.240644 18.886576
LeftLeg 18.614799 -0.000000 -0.000000
LeftFoot -20.232167 32.496415 -6.444917
LeftToeBase 5.033500 0.000000 0.000000
RightUpLeg -45.552434 -37.736052 -32.959723
RightLeg 95.991600 -0.000000 -0.000000
RightFoot 28.118005 -24.577684 -6.000318
RightToeBase 15.950700 -0.000000 -0.000000
3039
root -0.215200 34.059033 -3.235393 41.969541 -29.891370 -40.508765
Spine -11.037773 27.481833 16.685273
Head -22.656972 -50.495123 32.725053
LeftShoulder 18.430968 7.722439 24.586019
LeftArm -28.504853 -19.555445 -75.182870
LeftForeArm -142.242119 6.922236 -8.844985
LeftHand -0.000035 36.390219 4.578190
LeftHandThumb1 30.357831 13.997178 22.438692
RightShoulder -21.535637 -13.548375 -14.871351
RightArm 55.644250 7.268072 97.563140
RightForeArm 72.662617 -25.819431 7.742814
RightHand 0.000036 -5.190714 18.025101
RightHandThumb1 30.482666 -12.916435 -20.793814
LeftUpLeg -28.304641 20.267002 19.000175
LeftLeg 18.576099 -0.000000 -0.000000
LeftFoot -20.309943 32.512890 -6.614318
LeftToeBase 5.073400 -0.000000 -0.000000
RightUpLeg -45.666852 -37.710301 -32.943376
RightLeg 96.149101 -0.000000 -0.000000
RightFoot 28.110573 -24.534232 -6.014167
RightToeBase 15.943800 -0.000000 -0.000000
